<svg xmlns="http://www.w3.org/2000/svg">


    <symbol id="icon-logo" viewBox="0 0 54 60">
    <path fill-rule="evenodd" clip-rule="evenodd" d="M0.0513508 17.0055C0.0445194 14.7647 1.86584 12.9678 4.11508 12.9609C6.36559 12.9541 8.19784 14.7399 8.20467 16.9807C8.20649 17.5782 8.07252 18.1458 7.83217 18.6694L24.3954 28.0556C24.245 28.2498 24.1253 28.4603 24.0351 28.6847L7.47179 19.2971C6.735 20.3299 5.5145 21.0059 4.13961 21.0101C1.89038 21.0169 0.0581358 19.2311 0.0513508 17.0055ZM0.129378 42.6C0.122597 40.3756 1.94392 38.5774 4.19315 38.5706C5.56804 38.5664 6.79264 39.2349 7.53571 40.2631L24.0414 30.7748C24.133 30.9986 24.254 31.2071 24.4056 31.4016L7.8999 40.8887C8.14345 41.4108 8.28087 41.9776 8.28269 42.5751C8.28952 44.8146 6.4682 46.6128 4.21769 46.6197C1.96845 46.6266 0.136206 44.8395 0.129378 42.6ZM22.5917 55.3434C22.5852 53.238 24.2096 51.5012 26.2944 51.3151L26.2368 32.4253C26.3572 32.4401 26.4776 32.455 26.5979 32.4546C26.7195 32.4542 26.8552 32.4386 26.9755 32.4231L27.0331 51.3128C29.1024 51.4863 30.7386 53.2132 30.745 55.3185C30.7518 57.5441 28.9305 59.3563 26.68 59.3631C24.4307 59.37 22.5984 57.569 22.5917 55.3434ZM44.9899 42.4632C44.9881 41.8657 45.108 41.2981 45.3483 40.7745L28.785 31.3883C28.9355 31.1929 29.0552 30.9836 29.1454 30.7592L45.7241 40.1467C46.4596 39.114 47.666 38.438 49.0409 38.4338C51.2901 38.427 53.1224 40.2141 53.1291 42.4384C53.136 44.6779 51.3146 46.4761 49.0654 46.483C46.8149 46.4898 44.9967 44.7027 44.9899 42.4632ZM22.4355 4.12412C22.4287 1.89978 24.25 0.087647 26.4992 0.08079C28.7498 0.073929 30.582 1.87492 30.5888 4.09926C30.5952 6.2046 28.9696 7.9427 26.9014 8.12751L26.959 27.0173C26.8386 27.0037 26.7029 26.989 26.5813 26.9893C26.4609 26.9897 26.3406 27.0053 26.2204 27.0195L26.1628 8.12976C24.0768 7.95762 22.4419 6.22945 22.4355 4.12412ZM44.9119 16.8688C44.905 14.628 46.7123 12.8311 48.9628 12.8242C51.212 12.8173 53.0443 14.6032 53.0511 16.8439C53.0579 19.0696 51.2366 20.8665 48.9873 20.8733C47.6124 20.8775 46.4019 20.209 45.6601 19.1807L29.139 28.6691C29.0475 28.4453 28.9265 28.2355 28.7748 28.0423L45.2806 18.5552C45.037 18.0331 44.9137 17.4663 44.9119 16.8688Z" fill="#0097B2"/>
    <g filter="url(#filter0_d_60_555)">
    <path fill-rule="evenodd" clip-rule="evenodd" d="M15.0304 16.9889C15.0237 14.7646 16.8449 12.9525 19.0942 12.9456C21.3447 12.9387 23.177 14.7397 23.1838 16.9641C23.1879 18.3237 22.4965 19.5349 21.4579 20.2698L25.541 27.2013C25.2994 27.292 25.0885 27.4116 24.9072 27.5616L20.8241 20.63C20.3115 20.8708 19.723 21.0068 19.1188 21.0087C16.8695 21.0155 15.0372 19.2145 15.0304 16.9889ZM7.6099 29.7791C7.60312 27.5548 9.42439 25.7427 11.6749 25.7358C13.8025 25.7293 15.56 27.3356 15.748 29.3961L23.8553 29.3713C23.8416 29.4917 23.8266 29.6107 23.8269 29.7297C23.8273 29.85 23.843 29.9689 23.8575 30.0879L15.7502 30.1126C15.5747 32.1742 13.8271 33.7924 11.6995 33.7989C9.44897 33.8057 7.61668 32.0048 7.6099 29.7791ZM15.1083 42.5239C15.1015 40.2995 16.9228 38.4874 19.172 38.4806C19.7763 38.4787 20.3655 38.6111 20.8796 38.8475L24.9204 31.8925C25.1026 32.0413 25.3142 32.1597 25.5564 32.2488L21.5157 39.2052C22.5587 39.9337 23.2575 41.1406 23.2616 42.499C23.2684 44.7246 21.4471 46.5368 19.1966 46.5436C16.9474 46.5505 15.1151 44.7495 15.1083 42.5239ZM30.0119 42.4784C30.0077 41.12 30.6838 39.909 31.7223 39.174L27.6546 32.2424C27.8809 32.1519 28.0918 32.0322 28.2872 31.8822L32.3549 38.8126C32.8829 38.5729 33.4573 38.437 34.0756 38.4351C36.3261 38.4283 38.1584 40.2292 38.1652 42.4536C38.172 44.6792 36.3507 46.4913 34.1002 46.4982C31.851 46.505 30.0187 44.704 30.0119 42.4784ZM37.4761 29.3298C37.6657 27.2682 39.398 25.6513 41.5269 25.6448C43.7774 25.638 45.6084 27.4389 45.6152 29.6633C45.622 31.8889 43.802 33.701 41.5515 33.7079C39.4226 33.7144 37.6805 32.1068 37.4783 30.0464L29.3391 30.0712C29.3541 29.9521 29.3537 29.8331 29.3534 29.7129C29.353 29.5939 29.3526 29.4749 29.3369 29.3546L37.4761 29.3298ZM29.9493 16.9143C29.9425 14.6887 31.7638 12.8766 34.013 12.8697C36.2635 12.8629 38.0958 14.6639 38.1026 16.8895C38.1094 19.1151 36.2881 20.926 34.0376 20.9328C33.4334 20.9347 32.8441 20.8023 32.33 20.5658L28.274 27.5513C28.0777 27.4025 27.8661 27.2841 27.6392 27.195L31.6952 20.1943C30.6356 19.481 29.9534 18.2727 29.9493 16.9143Z" fill="#0CC0DF"/>
    </g>
    <path fill-rule="evenodd" clip-rule="evenodd" d="M24.2045 29.7285C24.2005 28.4296 25.2688 27.3667 26.5822 27.3627C27.8956 27.3587 28.9716 28.415 28.9756 29.7139C28.9796 31.0141 27.91 32.077 26.5966 32.081C25.2831 32.085 24.2084 31.0287 24.2045 29.7285Z" fill="#0097B2"/>
    <defs>
    <filter id="filter0_d_60_555" x="3.60986" y="12.8697" width="46.0054" height="41.674" filterUnits="userSpaceOnUse" color-interpolation-filters="sRGB">
    <feFlood flood-opacity="0" result="BackgroundImageFix"/>
    <feColorMatrix in="SourceAlpha" type="matrix" values="0 0 0 0 0 0 0 0 0 0 0 0 0 0 0 0 0 0 127 0" result="hardAlpha"/>
    <feOffset dy="4"/>
    <feGaussianBlur stdDeviation="2"/>
    <feComposite in2="hardAlpha" operator="out"/>
    <feColorMatrix type="matrix" values="0 0 0 0 0 0 0 0 0 0 0 0 0 0 0 0 0 0 0.25 0"/>
    <feBlend mode="normal" in2="BackgroundImageFix" result="effect1_dropShadow_60_555"/>
    <feBlend mode="normal" in="SourceGraphic" in2="effect1_dropShadow_60_555" result="shape"/>
    </filter>
    </defs>
    </symbol>

    <symbol id="ellipse" viewBox="0 0 490 478">
    <ellipse cx="245" cy="239" rx="245" ry="239" transform="rotate(-0.174672 245 239)" fill="#62E5FB" fill-opacity="0.15"/>
    </symbol>

  // html
    <symbol id="html" viewBox="-52.5 0 361 361"><path d="M255.555 70.766l-23.241 260.36-104.47 28.962-104.182-28.922L.445 70.766h255.11z" fill="#E44D26"/><path d="M128 337.95l84.417-23.403 19.86-222.49H128V337.95z" fill="#F16529"/><path d="M82.82 155.932H128v-31.937H47.917l.764 8.568 7.85 88.01H128v-31.937H85.739l-2.919-32.704zM90.018 236.542h-32.06l4.474 50.146 65.421 18.16.147-.04V271.58l-.14.037-35.568-9.604-2.274-25.471z" fill="#EBEBEB"/><path d="M24.18 0h16.23v16.035h14.847V0h16.231v48.558h-16.23v-16.26H40.411v16.26h-16.23V0zM92.83 16.103H78.544V0h44.814v16.103h-14.295v32.455h-16.23V16.103h-.001zM130.47 0h16.923l10.41 17.062L168.203 0h16.93v48.558h-16.164V24.49l-11.166 17.265h-.28L146.35 24.49v24.068h-15.88V0zM193.21 0h16.235v32.508h22.824v16.05h-39.06V0z"/><path d="M127.89 220.573h39.327l-3.708 41.42-35.62 9.614v33.226l65.473-18.145.48-5.396 7.506-84.08.779-8.576H127.89v31.937zM127.89 155.854v.078h77.143l.64-7.178 1.456-16.191.763-8.568H127.89v31.86z" fill="#FFF"/></symbol>

    <symbol id="javaScript" viewBox="0 0 256 256" fill="#000000">
    <path d="M0 0h256v256H0V0z" fill="#fdec35"/>
    <path d="M67.312 213.932l19.59-11.856c3.78 6.701 7.218 12.371 15.465 12.371 7.905 0 12.89-3.092 12.89-15.12v-81.798h24.057v82.138c0 24.917-14.606 36.259-35.916 36.259-19.245 0-30.416-9.967-36.087-21.996M152.381 211.354l19.588-11.341c5.157 8.421 11.859 14.607 23.715 14.607 9.969 0 16.325-4.984 16.325-11.858 0-8.248-6.53-11.17-17.528-15.98l-6.013-2.58c-17.357-7.387-28.87-16.667-28.87-36.257 0-18.044 13.747-31.792 35.228-31.792 15.294 0 26.292 5.328 34.196 19.247L210.29 147.43c-4.125-7.389-8.591-10.31-15.465-10.31-7.046 0-11.514 4.468-11.514 10.31 0 7.217 4.468 10.14 14.778 14.608l6.014 2.577c20.45 8.765 31.963 17.7 31.963 37.804 0 21.654-17.012 33.51-39.867 33.51-22.339 0-36.774-10.654-43.819-24.574"/>
    </symbol>

    <symbol id="node" viewBox="0 0 81 85">
    <path d="M40.4715 83.906C39.2479 83.9101 38.0448 83.6166 36.9833 83.0548L25.8735 77.0232C24.2156 76.1725 25.0212 75.8678 25.5681 75.6896C27.3271 75.1818 29.0106 74.473 30.5794 73.5797C30.7108 73.5231 30.8556 73.4983 31.0002 73.5079C31.1448 73.5174 31.2843 73.5608 31.4056 73.634L39.9425 78.285C40.1014 78.3621 40.2784 78.4021 40.4579 78.4015C40.6375 78.401 40.8142 78.3599 40.9726 78.2819L74.1539 60.4601C74.3092 60.3736 74.4374 60.2512 74.5262 60.1051C74.6149 59.959 74.661 59.7942 74.6599 59.6267L74.5519 24.1799C74.5515 24.0097 74.5036 23.8426 74.413 23.6945C74.3223 23.5465 74.1919 23.4225 74.0342 23.3346L40.745 5.73045C40.588 5.6494 40.411 5.6071 40.2311 5.60765C40.0513 5.6082 39.8746 5.65157 39.7181 5.73358L6.55622 23.5463C6.39804 23.6333 6.26686 23.7566 6.17537 23.9042C6.08388 24.0518 6.03519 24.2187 6.03401 24.3887L6.14203 59.8206C6.14299 59.9877 6.19203 60.1516 6.28411 60.2953C6.37619 60.4391 6.50801 60.5577 6.66606 60.6389L15.7963 65.4706C20.7432 67.7357 23.7605 65.0394 23.7523 62.3403L23.6456 27.3573C23.6449 27.1192 23.7466 26.8906 23.9283 26.7217C24.1101 26.5528 24.3569 26.4574 24.6147 26.4566L28.8258 26.4438C29.0835 26.443 29.331 26.5368 29.5137 26.7046C29.6965 26.8724 29.7996 27.1005 29.8003 27.3385L29.907 62.3246C29.9255 68.4139 26.347 71.9109 20.0951 71.93C17.3982 71.9816 14.7413 71.3234 12.4348 70.0322L3.68427 65.4298C2.62195 64.8625 1.73943 64.0476 1.12482 63.0665C0.510212 62.0855 0.185017 60.9725 0.181701 59.8388L0.0736828 24.4069C0.0670687 23.2714 0.384103 22.1542 0.992926 21.1675C1.60175 20.1808 2.48091 19.3593 3.54207 18.7857L36.7266 0.957962C37.7956 0.413592 38.9956 0.126324 40.216 0.122603C41.4365 0.118883 42.6382 0.398829 43.7105 0.93667L76.9999 18.5618C78.0621 19.1279 78.9448 19.9416 79.56 20.9216C80.1751 21.9016 80.5012 23.0137 80.5057 24.1467L80.6137 59.5936C80.6154 60.7273 80.2958 61.8419 79.6868 62.8264C79.0777 63.811 78.2004 64.6313 77.1421 65.2058L43.9608 83.0336C42.9008 83.6027 41.6972 83.9036 40.4715 83.906Z" fill="white"/>
    <path d="M34.0565 47.879C34.0558 47.6409 34.1574 47.4122 34.3392 47.2433C34.5209 47.0744 34.7678 46.9791 35.0255 46.9783L39.3241 46.9652C39.5538 46.9652 39.776 47.0403 39.9513 47.1773C40.1267 47.3142 40.2438 47.5042 40.282 47.7134C40.9422 51.754 42.892 53.7858 51.6802 53.759C58.6804 53.7377 61.6593 52.2654 61.6488 48.8332C61.6428 46.8553 60.7929 45.3886 49.909 44.4373C40.8105 43.6332 35.1814 41.7891 35.1609 35.0744C35.142 28.8803 40.7834 25.1676 50.2583 25.1387C60.906 25.1063 66.1867 28.5044 66.8763 35.8275C66.8869 35.9498 66.8702 36.0728 66.8274 36.1889C66.7845 36.305 66.7163 36.4118 66.627 36.5026C66.5378 36.5934 66.4293 36.6664 66.3083 36.7171C66.1874 36.7677 66.0565 36.7949 65.9237 36.797L61.596 36.8102C61.3789 36.808 61.1688 36.7388 60.9993 36.6135C60.8299 36.4881 60.7107 36.314 60.6609 36.1188C59.6146 31.8699 57.0806 30.5191 50.2781 30.5398C42.6333 30.5631 41.7532 33.0255 41.7588 34.8688C41.7656 37.101 42.8172 37.7501 53.1414 38.9784C63.3588 40.1951 68.2166 41.9458 68.2369 48.5767C68.2573 55.2675 62.2309 59.1161 51.6999 59.1482C37.1392 59.2105 34.0723 53.0527 34.0565 47.879Z" fill="white"/>
    </symbol>

    <symbol id="react" viewBox="0 0 84 76">
    <path d="M83.7836 37.6354C83.7665 32.0262 76.7997 26.7316 66.1331 23.4676C68.5588 12.4833 67.4392 3.75352 62.6148 0.972227C61.5027 0.319765 60.2039 0.013058 58.7864 0.0173793L58.7982 3.86616C59.5837 3.86377 60.2161 4.01717 60.7464 4.30896C63.0731 5.64809 64.0963 10.771 63.3308 17.3663C63.1479 18.9893 62.8457 20.6989 62.4753 22.4432C59.1255 21.625 55.469 20.9975 51.6252 20.595C49.31 17.4091 46.9103 14.5169 44.4946 11.9871C50.046 6.74062 55.263 3.85968 58.8152 3.84885L58.8035 6.83793e-05C54.1071 0.0143858 47.9694 3.41592 41.771 9.30296C35.5369 3.48834 29.3787 0.158811 24.6823 0.173128L24.6941 4.02191C28.2292 4.01113 33.4807 6.8429 39.0639 12.0209C36.6807 14.5653 34.2987 17.4549 32.037 20.6547C28.1787 21.0807 24.5261 21.7304 21.1814 22.5863C20.7833 20.8616 20.4879 19.1884 20.2781 17.5839C19.4553 10.9934 20.4302 5.86439 22.7316 4.49389C23.2429 4.18167 23.9086 4.04156 24.6941 4.03917L24.6824 0.190387C23.2479 0.19476 21.9509 0.509381 20.8258 1.16866C16.0355 3.97927 14.9861 12.6984 17.4958 23.6331C6.8835 26.9793 -0.0168269 32.2989 0.000220824 37.8908C0.0173212 43.5001 6.98417 48.7947 17.6507 52.0587C15.225 63.043 16.3446 71.7727 21.169 74.554C22.2811 75.2065 23.58 75.5132 25.0145 75.5088C29.7109 75.4945 35.8485 72.093 42.0469 66.2059C48.281 72.0206 54.4392 75.3501 59.1356 75.3358C60.5701 75.3314 61.8671 75.0168 62.9922 74.3575C67.7825 71.5469 68.8319 62.8278 66.3222 51.893C76.9004 48.5643 83.8007 43.2274 83.7836 37.6354ZM61.5133 26.1914C60.8882 28.4197 60.1096 30.7176 59.2286 33.0158C58.5242 31.6372 57.7856 30.2587 56.9788 28.8804C56.189 27.5021 55.3481 26.1584 54.5073 24.8493C56.9334 25.2043 59.2744 25.6459 61.5133 26.1914ZM53.7477 44.5962C52.4228 46.9302 51.0633 49.1435 49.6521 51.2017C47.1082 51.4338 44.5298 51.5625 41.934 51.5704C39.3553 51.5783 36.7762 51.4653 34.248 51.2659C32.8243 49.2164 31.4343 47.0287 30.0952 44.7201C28.7904 42.4631 27.6051 40.1712 26.5221 37.8618C27.5739 35.5458 28.7623 33.2294 30.0362 30.9646C31.3612 28.6306 32.7207 26.4172 34.1318 24.3591C36.6757 24.1269 39.2541 23.9983 41.8499 23.9904C44.4287 23.9825 47.0078 24.0955 49.5359 24.2949C50.9596 26.3444 52.3496 28.5321 53.6887 30.8407C54.9935 33.0977 56.1789 35.3896 57.2618 37.699C56.193 40.015 55.0217 42.3313 53.7477 44.5962ZM59.257 42.3357C60.1862 44.6456 60.9789 46.9559 61.6347 49.1976C59.3992 49.7567 57.0439 50.2299 54.6029 50.5998C55.4356 49.2683 56.2683 47.9023 57.0496 46.5019C57.831 45.1188 58.561 43.7185 59.257 42.3357ZM41.9963 60.8039C40.403 59.1519 38.8092 57.31 37.2319 55.2955C38.7691 55.3598 40.3404 55.4068 41.9286 55.402C43.5339 55.3971 45.122 55.3577 46.6759 55.2667C45.145 57.2907 43.5624 59.1423 41.9963 60.8039ZM29.2595 50.6771C26.8333 50.322 24.4923 49.8804 22.2535 49.3349C22.8785 47.1066 23.6571 44.8087 24.5382 42.5106C25.2426 43.8892 25.9811 45.2676 26.788 46.6459C27.5948 48.0242 28.4187 49.3679 29.2595 50.6771ZM41.7704 14.7224C43.3637 16.3744 44.9576 18.2163 46.5349 20.2308C44.9977 20.1665 43.4264 20.1195 41.8381 20.1243C40.2328 20.1292 38.6447 20.1686 37.0909 20.2596C38.6217 18.2356 40.2043 16.384 41.7704 14.7224ZM29.1639 24.9265C28.3312 26.258 27.4985 27.624 26.7172 29.0244C25.9358 30.4075 25.2057 31.7905 24.5097 33.1734C23.5805 30.8635 22.7878 28.5531 22.132 26.3114C24.3676 25.7696 26.7229 25.2964 29.1639 24.9265ZM13.7744 46.582C7.72096 43.9943 3.79974 40.589 3.79148 37.8793C3.78322 35.1696 7.68355 31.7231 13.7212 29.1158C15.1879 28.4728 16.7915 27.8983 18.4464 27.3582C19.4301 30.738 20.7217 34.255 22.3209 37.8573C20.7607 41.452 19.5077 44.9594 18.5616 48.3279C16.8692 47.798 15.2621 47.2161 13.7744 46.582ZM23.0374 71.2173C20.7108 69.8782 19.6876 64.7553 20.453 58.1599C20.6359 56.537 20.9381 54.8274 21.3085 53.0831C24.6583 53.9013 28.3149 54.5288 32.1586 54.9313C34.4739 58.1172 36.8736 61.0094 39.2893 63.5392C33.7379 68.7856 28.5208 71.6666 24.9686 71.6774C24.2001 71.6625 23.5507 71.5091 23.0374 71.2173ZM63.5057 57.9424C64.3285 64.5329 63.3536 69.6619 61.0523 71.0324C60.5409 71.3446 59.8753 71.4847 59.0897 71.4871C55.5546 71.4979 50.3031 68.6661 44.7199 63.4881C47.103 60.9437 49.4851 58.0541 51.7467 54.8543C55.605 54.4283 59.2577 53.7786 62.6024 52.9227C63.0005 54.6646 63.313 56.3378 63.5057 57.9424ZM70.0456 46.4105C68.5788 47.0536 66.9753 47.628 65.3204 48.1681C64.3366 44.7883 63.0451 41.2713 61.4458 37.669C63.006 34.0743 64.2591 30.5669 65.2052 27.1984C66.8975 27.7283 68.5046 28.3102 70.0094 28.9442C76.0629 31.5319 79.9841 34.9373 79.9923 37.647C79.9835 40.3567 76.0832 43.8032 70.0456 46.4105Z" fill="white"/>
    </symbol>

    <symbol id="scss" fill="currentColor" viewBox="0 0 512 512"><title>ionicons-v5_logos</title><path d="M511.78,328.07v0c-1.47-11.92-7.51-22.26-18-30.77a3.58,3.58,0,0,0-.43-.44l0,0-.53-.38-.17-.12-5.57-4-.19-.14-.71-.5,0,0a3.5,3.5,0,0,0-.83-.35c-17.62-10.49-46.79-17.84-91.42-2.09C383.28,271.36,382.07,257,389.2,235c1.27-3.83.09-6.36-3.71-8-7.64-3.25-18.1-1.59-25.52.37-3.46.9-5.54,2.86-6.2,5.83-4.7,22-18.36,42.1-31.57,61.5l-.78,1.14c-8.14-17.26-6.45-30.63-.78-47.38,1.13-3.34.24-5.56-2.89-7.22-8.74-4.51-21.85-1.41-27.07.13-6.62,1.93-13.72,19.82-21.65,41.24-2,5.39-3.72,10-4.75,12.15-2.45,5-4.79,10.7-7.27,16.75-5.6,13.69-11.91,29.1-20.93,38.78-3.28-7.25,1.88-18.68,6.89-29.77,5.93-13.11,11.53-25.5,5.08-33.41a11.82,11.82,0,0,0-8.33-4.32,13.26,13.26,0,0,0-6.15,1c.67-5.65.7-10.11-.95-15.5-2.36-7.69-8.49-12-16.93-11.77-19.22.56-35.48,14.88-45.75,26.8-6.84,8-22,14.1-35.31,19.45C129.37,305,124.37,307,120.2,309c-6.65-5.62-15.1-11.29-24-17.28-25-16.78-53.33-35.81-54.31-61.61-1.4-38.11,42-65.14,79.88-84.43,28.71-14.6,53.67-24.28,76.31-29.57,31.8-7.43,58.66-5.93,79.82,4.44,11.58,5.67,17,18,13.56,30.68-9,32.95-46.29,55.53-78.18,65.69-19.21,6.12-35.56,8.68-50,7.84-18.1-1.05-32.88-10.13-39.2-14a21.18,21.18,0,0,0-3.2-1.8l-.29-.07a3.21,3.21,0,0,0-3.19,1c-1.3,1.55-.84,4-.37,5.24,6.15,16.07,18.85,26.22,37.74,30.17a92.09,92.09,0,0,0,18.78,1.79c44.21,0,100.62-25.49,121.34-46.48,14.13-14.3,24.42-29,28.68-54.35,4.45-26.55-13.55-45-31.89-53.5-44.57-20.57-95.19-12.44-129.81-2-40.5,12.21-82.4,34.41-114.94,60.93-40.12,32.67-54.62,63-43.12,90.25,11.81,27.93,40.61,45.4,68.46,62.3,9,5.45,17.56,10.64,25.27,16-2.32,1.13-4.69,2.28-7.1,3.43C67.06,335,40.54,347.75,25.83,368.82c-10.68,15.35-12.68,30.63-5.94,45.42,3.6,7.87,10,13.21,18.89,15.87A50,50,0,0,0,53,432c17.31,0,36.36-7,46.73-13.47,18.32-11.5,30.19-26.94,35.29-45.89,4.54-16.86,3.45-33.61-3.15-48.56l22.45-11.32c-10.83,36-2.53,57.5,6.59,69.36,3.36,4.37,9.42,7,16.19,7.12s13-2.43,16.52-6.77c6.66-8.25,11.58-17.9,16.11-27.55-.24,6.3.06,12.68,2.21,18.09,1.93,4.87,5.11,8.1,9.21,9.34,4.36,1.33,9.47.21,14.39-3.15,22.17-15.17,37.33-51.58,49.51-80.85,1.73-4.16,3.39-8.16,5-11.9a152.5,152.5,0,0,0,12.5,31.07c1.18,2.14,1.08,3.08-.52,4.84-2.41,2.64-5.77,5.83-9.33,9.21-10.78,10.23-24.2,23-26,34.23-.7,4.5,2.4,8.6,7.21,9.53,14.47,2.88,31.9-1.33,46.64-11.25,13.4-9,18.44-21.55,15-37.19-3.33-15.06,4.27-33.76,22.59-55.62,3,12.53,7,22.66,12.52,31.53l-.15.12c-13.34,11.65-31.62,27.6-28.78,46.95a13.35,13.35,0,0,0,5.58,9.22,14.22,14.22,0,0,0,11.2,2.06c17.47-3.67,30.62-11.06,40.18-22.57s6.07-24.27,2.85-34.17c25-6.78,47.26-6.61,68.1.5,11.7,4,20.09,10.57,24.93,19.64,6.09,11.41,2.8,21.94-9.29,29.65-3.71,2.37-5.5,3.82-5.61,5.65a2.65,2.65,0,0,0,1,2.23c1.4,1.15,5.72,3.15,15.49-3,9-5.65,14.28-13.34,15.63-23A39,39,0,0,0,511.78,328.07ZM112.05,353.13l-.1,1.28c-1.56,14.64-9,27.4-22.15,38-8.26,6.66-17.23,10.75-25.25,11.53-5.6.54-9.67-.22-12.09-2.27-1.81-1.53-2.78-3.82-3-7-1.64-25.48,38.32-50.8,60.81-59.13A51.39,51.39,0,0,1,112.05,353.13ZM214.4,281.27h0c-3.7,21.09-14.49,60.9-31.45,76.35-.81.74-1.49,1-1.8.93s-.55-.44-.8-1c-5.66-13.12-3.57-35.28,5-52.69,6.59-13.42,16-22.31,26.52-25a5.29,5.29,0,0,1,1.34-.19,1.58,1.58,0,0,1,1,.27A1.64,1.64,0,0,1,214.4,281.27Zm83.49,76.88c-3.19,3.33-7.56,2.88-6.53,1.66l16.24-17.24C306.29,348.5,302.42,353.41,297.89,358.15Zm67.37-14.91a14.07,14.07,0,0,1-4.93,1.39c-.46-9.07,8.33-19.28,17-26.09C379.66,328,374.89,338,365.26,343.24Z"/></symbol>

    <!-- <symbol id="typeScript" fill="currentColor" viewBox="0 0 24 24"><path d="M19.24 3H4.76A1.76 1.76 0 0 0 3 4.76v14.48A1.76 1.76 0 0 0 4.76 21h14.48A1.76 1.76 0 0 0 21 19.24V4.76A1.76 1.76 0 0 0 19.24 3m-5.8 10h-2.25v6.44H9.4V13H7.15v-1.46h6.29zm5.8 5.28a1.7 1.7 0 0 1-.67.74 3 3 0 0 1-1 .39 6 6 0 0 1-1.2.12 7 7 0 0 1-1.23-.11 4.5 4.5 0 0 1-1-.33v-1.71l-.06-.06h.06v.07a3.4 3.4 0 0 0 1 .54 3.1 3.1 0 0 0 1.13.2 2.6 2.6 0 0 0 .6-.06 1.5 1.5 0 0 0 .42-.17.75.75 0 0 0 .25-.25.69.69 0 0 0-.06-.74 1.2 1.2 0 0 0-.35-.33 3 3 0 0 0-.53-.3l-.67-.28a3.6 3.6 0 0 1-1.37-1 2 2 0 0 1-.46-1.33 2.16 2.16 0 0 1 .24-1.06 2.1 2.1 0 0 1 .66-.71 2.9 2.9 0 0 1 1-.42 5 5 0 0 1 1.19-.13 7 7 0 0 1 1.09.07 4.5 4.5 0 0 1 .88.23v1.65a2.4 2.4 0 0 0-.42-.24 4 4 0 0 0-.49-.17 3 3 0 0 0-.49-.1 2.5 2.5 0 0 0-.46 0 2.3 2.3 0 0 0-.56.06 1.5 1.5 0 0 0-.43.16.8.8 0 0 0-.26.25.63.63 0 0 0-.09.33.6.6 0 0 0 .1.35 1.2 1.2 0 0 0 .3.29 2.2 2.2 0 0 0 .46.28l.63.28a6.6 6.6 0 0 1 .84.42 2.7 2.7 0 0 1 .64.49 1.8 1.8 0 0 1 .42.63 2.5 2.5 0 0 1 .14.85 2.7 2.7 0 0 1-.25 1.08z"></path></symbol>
 -->

    <symbol id="typeScript"  viewBox="0 0 256 256" >
    <path d="M20 0h216c11.046 0 20 8.954 20 20v216c0 11.046-8.954 20-20 20H20c-11.046 0-20-8.954-20-20V20C0 8.954 8.954 0 20 0Z" fill="currentColor"/>
    <path d="M150.518 200.475v27.62c4.492 2.302 9.805 4.028 15.938 5.179 6.133 1.151 12.597 1.726 19.393 1.726 6.622 0 12.914-.633 18.874-1.899 5.96-1.266 11.187-3.352 15.678-6.257 4.492-2.906 8.048-6.704 10.669-11.394 2.62-4.689 3.93-10.486 3.93-17.391 0-5.006-.749-9.394-2.246-13.163a30.748 30.748 0 0 0-6.479-10.055c-2.821-2.935-6.205-5.567-10.149-7.898-3.945-2.33-8.394-4.531-13.347-6.602-3.628-1.497-6.881-2.949-9.761-4.359-2.879-1.41-5.327-2.848-7.342-4.316-2.016-1.467-3.571-3.021-4.665-4.661-1.094-1.64-1.641-3.495-1.641-5.567 0-1.899.489-3.61 1.468-5.135s2.362-2.834 4.147-3.927c1.785-1.094 3.973-1.942 6.565-2.547 2.591-.604 5.471-.906 8.638-.906 2.304 0 4.737.173 7.299.518 2.563.345 5.14.877 7.732 1.597a53.669 53.669 0 0 1 7.558 2.719 41.7 41.7 0 0 1 6.781 3.797v-25.807c-4.204-1.611-8.797-2.805-13.778-3.582-4.981-.777-10.697-1.165-17.147-1.165-6.565 0-12.784.705-18.658 2.115-5.874 1.409-11.043 3.61-15.506 6.602-4.463 2.993-7.99 6.805-10.582 11.437-2.591 4.632-3.887 10.17-3.887 16.615 0 8.228 2.375 15.248 7.127 21.06 4.751 5.811 11.963 10.731 21.638 14.759a291.458 291.458 0 0 1 10.625 4.575c3.283 1.496 6.119 3.049 8.509 4.66 2.39 1.611 4.276 3.366 5.658 5.265 1.382 1.899 2.073 4.057 2.073 6.474a9.901 9.901 0 0 1-1.296 4.963c-.863 1.524-2.174 2.848-3.93 3.97-1.756 1.122-3.945 1.999-6.565 2.632-2.62.633-5.687.95-9.2.95-5.989 0-11.92-1.05-17.794-3.151-5.875-2.1-11.317-5.25-16.327-9.451Zm-46.036-68.733H140V109H41v22.742h35.345V233h28.137V131.742Z" fill="#FFF"/>
    </symbol>

    <symbol id="vite" viewBox="0 0 32 32"><title>file_type_vite</title><path d="M29.8836 6.146L16.7418 29.6457c-.2714.4851-.9684.488-1.2439.0052L2.0956 6.1482c-.3-.5262.1498-1.1635.746-1.057l13.156 2.3516a.7144.7144 0 00.2537-.0004l12.8808-2.3478c.5942-.1083 1.0463.5241.7515 1.0513z" fill="url(#paint0_linear)"/><path d="M22.2644 2.0069l-9.7253 1.9056a.3571.3571 0 00-.2879.3294l-.5982 10.1038c-.014.238.2045.4227.4367.3691l2.7077-.6248c.2534-.0585.4823.1647.4302.4194l-.8044 3.9393c-.0542.265.1947.4918.4536.4132l1.6724-.5082c.2593-.0787.5084.1487.4536.414l-1.2784 6.1877c-.08.387.4348.598.6495.2662L16.5173 25 24.442 9.1848c.1327-.2648-.096-.5667-.387-.5106l-2.787.5379c-.262.0505-.4848-.1934-.4109-.4497l1.8191-6.306c.074-.2568-.1496-.5009-.4118-.4495z" fill="url(#paint1_linear)"/><defs id="defs50"><linearGradient id="paint0_linear" x1="6.0002" y1="32.9999" x2="235" y2="344" gradientUnits="userSpaceOnUse" gradientTransform="matrix(.07142 0 0 .07142 1.3398 1.8944)"><stop stop-color="#41D1FF" id="stop38"/><stop offset="1" stop-color="#BD34FE" id="stop40"/></linearGradient><linearGradient id="paint1_linear" x1="194.651" y1="8.8182" x2="236.076" y2="292.989" gradientUnits="userSpaceOnUse" gradientTransform="matrix(.07142 0 0 .07142 1.3398 1.8944)"><stop stop-color="#FFEA83" id="stop43"/><stop offset=".0833" stop-color="#FFDD35" id="stop45"/><stop offset="1" stop-color="#FFA800" id="stop47"/></linearGradient></defs></symbol>

    <symbol id="webpack" viewBox="0 0 73 73">
        <g id="build-tools/webpack" stroke="none" stroke-width="1" fill="none" fill-rule="evenodd">
            <g id="container" transform="translate(2.000000, 2.000000)" fill-rule="nonzero">
   
                <g id="e0b5805d423a4ec9473ee315250968b2" transform="translate(11.000000, 7.000000)">
                    <polygon id="Shape" fill="#FFFFFF" points="23.2495466 0 46.4990932 13.1507125 46.4990932 39.4581452 23.2495466 52.6088577 0 39.4581452 0 13.1507125">
    </polygon>
                    <path d="M42.3478175,38.5509923 L24.0185238,48.92017 L24.0185238,40.8459088 L35.4390375,34.5619229 L42.3478175,38.5509923 Z M43.6034132,37.4155494 L43.6034132,15.7339955 L36.8988928,19.6089199 L36.8988928,33.5466326 L43.6034132,37.4155494 Z M4.07918401,38.5509923 L22.4084777,48.92017 L22.4084777,40.8459088 L10.9819564,34.5619229 L4.07918401,38.5509923 Z M2.82358834,37.4155494 L2.82358834,15.7339955 L9.52810875,19.6089199 L9.52810875,33.5466326 L2.82358834,37.4155494 Z M3.6105885,14.3282089 L22.4084777,3.69469539 L22.4084777,11.498613 L10.36317,18.1250341 L10.2670478,18.1791028 L3.6105885,14.3282089 Z M42.816413,14.3282089 L24.0185238,3.69469539 L24.0185238,11.498613 L36.0638316,18.1190265 L36.1599537,18.1730952 L42.816413,14.3282089 Z" id="Shape" fill="#8ED6FB">
    </path>
                    <path d="M22.4084777,39.0075726 L11.1381549,32.8076935 L11.1381549,20.5340957 L22.4084777,27.0403641 L22.4084777,39.0075726 Z M24.0185238,39.0075726 L35.2888467,32.8137011 L35.2888467,20.5340957 L24.0185238,27.0403641 L24.0185238,39.0075726 Z M11.9011245,19.1162939 L23.2135008,12.8983919 L34.525877,19.1162939 L23.2135008,25.6465929 L11.9011245,19.1162939 Z" id="Shape" fill="#1C78C0">
    </path>
                </g>
            </g>
        </g>
    </symbol>

    <symbol id="preview" viewBox="0 0 20 22" fill="none" >
    <path d="M11.3571 8.92051C10.5353 8.03601 9.423 7.54112 8.26486 7.54465C7.10671 7.54818 5.99749 8.04985 5.1811 8.93933L2.10231 12.2941C1.2859 13.1839 0.82939 14.3889 0.833216 15.6438C0.837042 16.8988 1.30089 18.1009 2.12271 18.9858C2.94453 19.8707 4.05701 20.3658 5.21542 20.3623C6.37383 20.3587 7.48327 19.8568 8.29968 18.967L9.83857 17.2896" stroke="currentColor" stroke-width="1.66667" stroke-linecap="round" stroke-linejoin="round"/>
    <path d="M8.27896 12.2752C9.10077 13.1597 10.213 13.6546 11.3712 13.6511C12.5293 13.6476 13.6385 13.1459 14.4549 12.2564L17.5337 8.90167C18.3501 8.01179 18.8066 6.80685 18.8028 5.55191C18.799 4.29697 18.3351 3.09483 17.5133 2.20995C16.6915 1.32507 15.579 0.829934 14.4206 0.833465C13.2622 0.836997 12.1528 1.33891 11.3364 2.22878L9.79746 3.90615" stroke="currentColor" stroke-width="1.66667" stroke-linecap="round" stroke-linejoin="round"/>
    </symbol>

    <symbol id="git" viewBox="0 0 24 23">
    <path fill-rule="evenodd" clip-rule="evenodd" d="M11.9648 3.78443e-05C5.33482 0.0202501 -0.0194674 5.18285 -9.73026e-05 11.5366C0.0154163 16.6253 3.4635 20.9129 8.23813 22.4221C8.83843 22.5209 9.06238 22.1752 9.06146 21.8734C9.06062 21.6002 9.04286 20.6947 9.03993 19.7315C6.02656 20.2726 5.2428 19.0387 5.00083 18.3926C4.86482 18.0624 4.27671 17.0436 3.76588 16.772C3.34523 16.5576 2.74361 16.0276 3.74856 16.0102C4.69351 15.9929 5.37109 16.839 5.59714 17.1833C6.68244 18.9194 8.40594 18.4253 9.09502 18.1214C9.19774 17.3736 9.5112 16.8695 9.85533 16.5809C7.18446 16.3016 4.39145 15.3182 4.37804 10.9195C4.37423 9.66885 4.83607 8.63244 5.59861 7.82511C5.47774 7.53797 5.05415 6.36051 5.70932 4.77726C5.70932 4.77726 6.7134 4.47232 9.0129 5.94594C9.97211 5.68426 10.9917 5.55178 12.0117 5.54867C13.0317 5.54556 14.0521 5.67183 15.0129 5.92765C17.3033 4.42566 18.3093 4.73884 18.3093 4.73884C18.9741 6.31807 18.5577 7.4981 18.4386 7.78596C19.206 8.58863 19.6741 9.60783 19.678 10.8728C19.6914 15.2859 16.8894 16.272 14.2203 16.5676C14.6564 16.9257 15.0335 17.6145 15.0368 18.6926C15.0415 20.2308 15.0302 21.467 15.0314 21.8552C15.0324 22.157 15.2584 22.5157 15.8581 22.3989C18.2379 21.6209 20.3034 20.1473 21.7639 18.1856C23.2245 16.224 24.0064 13.8729 23.9998 11.4634C23.9804 5.10968 18.5948 -0.0201744 11.9648 3.78443e-05Z" fill="currentColor"/>
    </symbol>

    <symbol id="email" viewBox="0 0 9 7">
    <path fill-rule="evenodd" clip-rule="evenodd" d="M1.60362 2.36824e-07H6.47909C6.65636 -4.72537e-06 6.80932 -9.10916e-06 6.93592 0.00862868C7.06922 0.0177234 7.20255 0.0377296 7.33427 0.0922894C7.63134 0.215341 7.86736 0.451365 7.99042 0.748439C8.04498 0.880158 8.06498 1.01349 8.07408 1.14678C8.08271 1.27338 8.08271 1.42634 8.0827 1.60361V4.86255C8.08271 5.03982 8.08271 5.19278 8.07408 5.31938C8.06498 5.45268 8.04498 5.58601 7.99042 5.71773C7.86736 6.0148 7.63134 6.25082 7.33427 6.37388C7.20255 6.42844 7.06922 6.44844 6.93592 6.45754C6.80933 6.46617 6.65636 6.46617 6.47909 6.46616H1.60361C1.42634 6.46617 1.27338 6.46617 1.14678 6.45754C1.01349 6.44844 0.880158 6.42844 0.748439 6.37388C0.451365 6.25082 0.215341 6.0148 0.0922894 5.71773C0.0377296 5.58601 0.0177233 5.45268 0.00862868 5.31938C-9.10916e-06 5.19278 -4.72537e-06 5.03982 2.36824e-07 4.86255V1.60362C-4.72537e-06 1.42634 -9.10916e-06 1.27338 0.00862868 1.14678C0.0177233 1.01349 0.0377296 0.880158 0.0922894 0.748439C0.215341 0.451365 0.451365 0.215341 0.748439 0.0922894C0.880158 0.0377296 1.01349 0.0177234 1.14678 0.00862868C1.27338 -9.10916e-06 1.42634 -4.72537e-06 1.60362 2.36824e-07ZM0.936569 0.920315C1.08355 0.752342 1.33886 0.735321 1.50684 0.882298L3.77523 2.86714C3.9276 3.00047 4.15511 3.00047 4.30748 2.86714L6.57588 0.882298C6.74385 0.735321 6.99917 0.752342 7.14614 0.920315C7.29312 1.08829 7.2761 1.34361 7.10813 1.49058L4.83973 3.47543C4.38262 3.8754 3.70009 3.8754 3.24298 3.47543L0.974587 1.49058C0.806613 1.34361 0.789592 1.08829 0.936569 0.920315Z" fill="white"/>
    </symbol>

    <symbol id="phone" viewBox="0 0 9 9" >
    <path fill-rule="evenodd" clip-rule="evenodd" d="M0.0569386 0.970773C0.137506 0.375696 0.662604 0 1.20838 0H2.24638C2.76823 0 3.23154 0.333933 3.39657 0.829009L3.82068 2.10135C4.00297 2.64823 3.68112 3.23454 3.12187 3.37436C2.98513 3.40854 2.93796 3.57883 3.03763 3.6785L4.4042 5.04507C4.50387 5.14474 4.67416 5.09757 4.70835 4.96083C4.84816 4.40159 5.43447 4.07973 5.98135 4.26202L7.25369 4.68614C7.74877 4.85116 8.0827 5.31447 8.0827 5.83633V6.87432C8.0827 7.4201 7.70701 7.9452 7.11193 8.02576C6.83448 8.06333 6.55144 8.0827 6.2641 8.0827C2.80453 8.0827 0 5.27817 0 1.81861C0 1.53126 0.0193747 1.24822 0.0569386 0.970773Z" fill="white"/>
    </symbol>

    <symbol id="icon-check" viewBox="0 0 18 13" fill="none" >
        <path d="M17 1L6 12L1 7" stroke-width="2" stroke-linecap="round" stroke="currentColor" stroke-linejoin="round"/>
    </symbol>

    
</svg>
